<?xml version="1.0" encoding="utf-8"?>
<!-- Generator: Adobe Illustrator 23.0.4, SVG Export Plug-In . SVG Version: 6.00 Build 0)  -->
<svg version="1.1" id="Capa_1" xmlns="http://www.w3.org/2000/svg" xmlns:xlink="http://www.w3.org/1999/xlink" x="0px" y="0px"
	 viewBox="0 0 71.9 66.7" style="enable-background:new 0 0 71.9 66.7;" xml:space="preserve">
<style type="text/css">
	.st0{fill:#474747;}
</style>
<path class="st0" d="M42.6,29c-1,0.8-1.9,1.5-2.9,2.4c-1.1,1-1.9,2.1-2.3,3.5c-0.3,0.9-0.7,1.7-1.1,2.6c-0.3,0.6-0.2,1.1,0.3,1.5
	c0.4,0.3,0.8,0.5,1.2,0.6c0.7,0.2,1.4,0.2,2.1,0.3c2.6,0.6,4.3,2.2,5.4,4.5c0.7,1.7,1.2,3.5,1.7,5.3c0.2,0.5,0.4,0.7,0.9,0.8
	c1.3,0.1,1.8,0.8,1.9,2.1c0.1,1.4-0.4,2.5-1.5,3.4c-1.9,1.6-3.8,3.1-5.6,4.7c-0.2,0.2-0.4,0.4-0.5,0.7c-0.8,2.9-4.6,5.2-7.5,4.4
	c-1.2-0.3-2.4-0.7-3.6-1c-0.4-0.1-0.8,0.1-1.2,0.3c-1.1,0.5-2.2,1.1-3.3,1.6c0-0.1-0.1-0.1-0.1-0.2c0.1-0.5,0.2-1,0.2-1.6
	c-1.5-0.2-2.9-0.3-4.1,0.8c-0.2,0.2-0.6,0.2-1,0.4c-0.5-1.4,0.7-1.9,1.3-2.8c-1,0.2-1.9,0.3-2.9,0.5c0-1.6,1.4-1.4,2.3-1.8
	c0-0.1,0-0.1-0.1-0.2c-0.2,0-0.3,0-0.5,0c-2.3,0.5-4.5,1-6.8,1.5c-0.2,0-0.4,0-0.6,0c0-0.2,0-0.4,0.1-0.5c0.2-0.4,0.4-0.8,0.6-1
	c-0.4-0.7-0.8-1.3-1.1-1.9c-0.3-0.6-0.6-1.3-0.9-1.9c0.1-0.4,0-0.6,0-0.9c-0.3-1.7-0.2-3.3,0.2-5c0.4-1.5,1.4-1.9,2.6-0.8
	c0.4,0.3,0.8,0.7,1.3,1.1c0.6-0.5,1.3-1,1.9-1.7c0.5-0.6,0.6-1.3,0.1-2c-1.8-2.3-1.3-4.6,0.2-6.8c0.2-0.3,0.4-0.6,0.7-1
	c-1.4-1.2-2.8-2.5-4.2-3.7c-0.8-0.7-1.5-1.4-1.9-2.4c-0.3-0.7-1-1.3-1.7-1.7c-2.4-1.3-4.7-2.6-6.6-4.6c-2.7-2.7-4.5-5.8-5.4-9.5
	c-0.4-1.9-0.2-3.8,0.3-5.6c0.2-0.8,0.4-1.5,0.6-2.3c0.3-1,0.8-1.6,1.8-1.9c1-0.3,2-0.5,3.2-0.7C5.6,7.9,5,7.1,4.4,6.4
	c-0.7-0.7-0.8-1-0.3-1.9c1.1-2,2.7-3.3,4.7-4.3c0.8-0.4,1.4-0.1,1.8,0.7c0.7,1.5,0.9,3.2,0.9,4.8c0,2.2-0.2,4.4-0.4,6.5
	c-0.3,3.6,0.5,7.1,1.8,10.4c0,0.1,0.1,0.1,0.2,0.2c0.9-2.7,3-4.4,4.7-6.4c0.9-0.9,1.6-2,2.5-3c0.1,0.3,0.2,0.6,0.2,1
	c0.6-0.2,1.2-0.5,1.9-0.7c0.3-0.1,0.6,0,0.9,0.1c0.5,0.2,1,0.5,1.5,0.6c1.8,0.2,3.6,0.4,5.5,0.5c2.3,0.2,4.2,1.2,5.5,3.2
	c0.6,0.9,1.1,1.8,1.7,2.7c1-2.9,1.9-5.7,1.5-8.8c-0.4-3-0.3-6.1,0.8-9c0.1-0.4,0.3-0.7,0.5-1.1c0.6-1.1,1.3-1.3,2.3-0.6
	c0.6,0.4,1.1,0.8,1.6,1.3c4.5,4.6,6.1,10,4.7,16.3c-0.3,1.2-0.7,2.4-1.1,3.6c-0.2,0.4-0.5,0.9-0.8,1.2c-0.5,0.6-1.1,0.8-1.8,0.7
	c-0.7-0.1-1.4-0.2-2-0.3c0,0.1-0.1,0.1-0.1,0.2c0.3,0.5,0.7,1,1,1.5c0.9,1.3,0.9,1.5-0.4,2.3c-0.2,0.1-0.4,0.2-0.6,0.3
	c-0.1-0.1-0.3-0.3-0.4-0.3c-0.5,0.1-1,0.2-1.5,0.3c-0.8,0.2-1,0.6-0.8,1.5c0.4-0.2,0.8-0.4,1.2-0.6C41.8,29.3,42.2,29.2,42.6,29z
	 M47,52.2c-0.1,0-0.1,0-0.2,0c-0.1-0.7-0.1-1.3-0.2-2c0-0.2-0.2-0.5-0.4-0.6c-1.4-0.5-1.6-0.9-1.3-2.3c0.5-1.9-0.7-3.5-2.7-3.4
	c-1.2,0.1-2-0.5-2.5-1.4c-0.6-1.3-1.7-2.1-2.8-2.7c-0.9-0.6-1.7-0.5-2.5,0.2c-1.5,1.2-3.1,2-5,2.2c-0.8,0.1-1.3,0.5-1.7,1.2
	c-0.7,1.4-0.9,2.7-0.3,4.2c0.4,1,0.5,2,0.1,3.1c-0.6,1.7-1.2,3.4-1.9,5.1c-0.6,1.5-0.7,2.8,0.7,4c0.5,0.4,0.4,0.9,0,1.3
	c-0.1,0.1-0.3,0.2-0.4,0.4c0.2,0.1,0.4,0.2,0.6,0.3c0,0.1,0,0.1-0.1,0.2c-0.3,0-0.6-0.1-0.8-0.1c-0.4,0-0.9,0-0.9,0.6
	c0,0.4,0.1,0.9,0.3,1.3c0.4,0.8,1,0.9,1.7,0.2c0.5-0.5,1-1.1,1.6-1.5c0.6-0.5,1.1-0.4,1.6,0.4c-2,0.2-2.3,0.4-2.4,1.6
	c0.4-0.2,0.9-0.7,1.2-0.7c0.4,0.1,0.6,0.6,1,1.1c0.4-0.3,1-0.5,1.2-0.8c0.3-0.8,0.3-1.6,0.5-2.5c0-0.1-0.1-0.3-0.1-0.4
	c-0.7-0.8-0.6-1.8-0.6-2.7s0.4-1.5,1.2-1.8c0.4-0.2,0.8-0.5,1-0.8c0.6-1.6,1.7-2.7,3.1-3.5c0.2-0.1,0.4-0.5,0.4-0.7
	c-0.1-0.7-0.2-1.3-0.4-1.9c-0.2-0.8-0.5-1.5-0.2-2.3c0.5,1.5,0.9,3,1.4,4.5c1.7-0.3,3.1,0.1,4.4,1.1c-0.9-0.2-1.7-0.5-2.6-0.6
	c-0.8,0-1.7,0-2.5,0.3s-1.5,0.9-2.2,1.4c-0.6,0.5-1,1.3-1.2,2.3c0.9-0.5,1.6-0.9,2.3-1.3c1.6-0.9,3.2-0.4,4,1.2
	c0.2,0.3,0.3,0.7,0.5,0.9c1,1,2,2,2.5,3.3c2.1-1.3,4-2.7,4.6-5.3c0.2,0.4,0.3,0.6,0.4,0.8c1.3-0.5,2-1.7,2-3.3c0-1.3-0.7-2-2.1-1.8
	C47.2,51.3,47.1,51.8,47,52.2z M20.5,19.7c-0.1-0.1-0.2-0.2-0.3-0.2c-1.7-1.3-3.2-1.2-4.6,0.4c-0.2,0.3-0.5,0.6-0.7,0.9
	c-1.3,2.1-1.9,4.4-2.1,6.8c0,0.4-0.1,0.8-0.1,1.1c-0.4-1.2-0.2-2.4-0.1-3.6c0-0.4,0-0.9-0.1-1.3c-0.5-2-1-4.1-1.5-6.1
	c-0.1-0.4-0.2-0.7-0.3-1.1c-1.5,4.7-2.3,9.3,0.6,13.8c-3.1-1.8-4.2-2.2-4.9-1.9c2.1,1.5,4.1,2.9,6.2,4.4c0.1-0.3,0.2-0.5,0.4-0.9
	c0.4,0.7,0.6,1.2,0.9,1.8c0.6,1,1.1,2.1,1.9,3c3.5,3.5,7.7,5.2,12.7,4.9c4.1-0.3,6.9-2.8,8.4-6.6c0.4-1,0.8-2,1.4-2.9
	c0.9-1.5,1.2-3.1,0.8-4.8c-0.4-1.7-1-3.3-1.5-5c-0.1-0.2-0.2-0.3-0.3-0.4c-0.2,0.6-0.1,1.2-0.2,1.7c-0.2,1.2-1,1.6-2,1.1
	c-0.6-0.3-1-0.8-1.5-1.2c-0.3-0.3-0.6-0.6-0.8-0.9c-0.1,0-0.1,0-0.1,0.1s-0.1,0.3-0.1,0.4c-0.5,1.6-1.4,2.9-3.1,3.5
	c-0.5,0.2-0.7,0.5-0.7,1c0.8-0.1,1.6-0.2,2.3-0.2c2.2-0.1,4.4,0.2,6.3,1.3c1.2,0.7,1.2,1.5,0.5,2.6c-0.6,1-1.2,2.1-1.6,3.2
	c-0.9,3-2.7,4.9-5.7,5.7c-6.5,1.9-13.2-1.3-15.9-7.5c-0.2-0.6-0.2-1.2-0.4-2c0.4,0.2,0.6,0.2,0.7,0.3c0.5,0.3,1,0.3,1.5,0.1
	c3.7-1.2,7.3-2.5,11-3.7c0.2-0.1,0.3-0.2,0.6-0.3c-0.7-0.4-1.3-0.6-1.8-0.9c-0.8-0.4-1.6-0.7-2.4-1.2c-1.8-1.1-2.3-2.9-1.5-4.8
	c0.7-1.6,2-2.5,3.7-2.8c1.5-0.3,2.8,0,4.2,0.7c0.1-0.8,0.2-1.6,0.3-2.4c-0.1,0-0.1,0-0.2,0c-0.2,0.3-0.5,0.6-0.8,1
	c-0.1-1.1-0.8-1.3-1.6-1.4c-1.6-0.1-3.2-0.1-4.9-0.1c-0.9,0-1.8,0.3-2.8,0.4c0.2-0.3,0.3-0.5,0.4-0.6L20.6,15
	c-0.8,0.5-1.5,1.1-2.4,1.6c0.4,0.3,0.7,0.5,1,0.8c0.3,0.2,0.6,0.5,0.9,0.7c0.1,0.1,0.1,0.3,0.2,0.5c-1.8-1.2-2-1.3-2.8-0.9
	C19.6,18.3,19.9,18.6,20.5,19.7z M9.8,28.8c0-0.1,0-0.2-0.1-0.2c-1.4-3.1-1.3-6.3-0.4-9.5c1.6-5.6,2.2-11.4,1.3-17.2
	c-0.2-1.3-0.8-1.6-1.9-1C7.3,1.7,6.1,2.7,5.1,4c-0.8,1-0.8,1.4,0,2.5C5.6,7.2,6,8,6.5,8.9C5.5,9.1,4.8,9.3,4,9.5
	c-1.1,0.2-1.9,0.8-2.3,1.9c-1.7,4.3-1.4,8.5,1,12.4c1.5,2.6,3.8,4.1,6.6,5C9.5,28.8,9.6,28.8,9.8,28.8z M42.3,24
	c1.1,0.1,2.1,0.2,3,0.3c0.5,0,0.9,0,1.2-0.5c1.7-2.7,2.5-5.8,2.4-8.9c-0.2-5-2.3-9.3-6.1-12.6c-0.3-0.2-0.6-0.4-0.8-0.5
	c-0.6-0.3-1-0.3-1.2,0.4c-0.4,1.3-0.9,2.6-1.2,3.9c-0.6,3.7-0.3,7.4,0.3,11.1c0.5,3.3,1.1,6.6,0.8,10c0,0.4-0.1,0.8-0.1,1.3
	c1.2-0.4,2.4-0.8,3.7-1.2c-0.3-0.6-0.6-1.1-0.9-1.5C43,25.2,42.7,24.7,42.3,24z M18,62.2c1.1-0.3,2.3-0.5,3.4-0.8
	c0.4-0.1,0.8-0.2,1.1-0.4c0.9-0.8,1.8-1,2.9-0.3c0.1,0.1,0.4-0.1,0.6-0.1c-0.1-0.2-0.2-0.3-0.3-0.5c-1.4-1.3-1.7-2.6-0.9-4.4
	c0-0.1,0.1-0.2,0.1-0.2c0.4-0.8,0.3-1.5-0.2-2.3c-0.6-0.9-1.3-1.8-1.9-2.8c-0.2-0.4-0.3-0.9-0.5-1.3c-0.1-0.3-0.3-0.6-0.5-0.8
	c-1-0.7-1.3-1.7-1.2-2.8c0-0.2,0-0.3,0-0.5c-0.9,0.1-1.1-0.2-0.7-0.9c0.2-0.5,0.6-1,0.9-1.5c0.4-0.7,0.4-0.9-0.3-1.6
	c-0.8,1.1-1.6,2.2-1.9,3.5c-0.3,1.2-0.2,2.4,0.6,3.5c0.6,0.8,0.6,1.6,0.4,2.5c-0.4,1.4-0.7,2.8-1,4.2c-0.2,1.2,0,2.3,1,3.2
	c0.5,0.5,0.5,0.9,0,1.5c-0.1,0.1-0.2,0.2-0.3,0.3c0.3,0.1,0.6,0.3,0.9,0.4c-0.4,0-0.8,0-1.1,0c-1.5-0.1-1.8,0.4-1.2,1.8
	C17.9,62,18,62.1,18,62.2z M33.1,35.5c0.2-0.3,0.3-0.6,0.4-0.8c0.5-0.7,0.4-1.4-0.3-1.8c-0.6-0.3-1.5-0.7-2.1-0.6
	c-1.4,0.2-2.7,0.8-4.1,1.2c0.4,0.3,0.6,0.4,0.8,0.5c0,0.1-0.1,0.2-0.1,0.2c-1.4-0.5-2.7-1.1-4.1-1.6c-1,1-1.4,1.1-2.5,0.6
	c-0.6-0.3-0.9-0.2-1.2,0.4c-0.4,0.7,0.4,1.9,1.3,1.9c0.5,0,0.9,0.2,1,0.7c0,0.1,0.1,0.3,0.1,0.4c0.2-0.1,0.4-0.1,0.6-0.2
	c0.8-0.3,1.1-0.1,1.4,0.7c0.1,0.4,0.3,0.7,0.4,1.1c0.4,1,0.6,1,1.4,0.3c0.4-0.4,0.8-0.5,1.3,0c0.9,0.9,0.9,0.9,1.8,0
	c0.4-0.4,0.9-0.7,1.5-0.2c0.4,0.3,0.8,0.2,0.9-0.3s0.2-1.1,0.3-1.6C32,35.6,32.2,35.5,33.1,35.5z M27.2,42.5
	c-0.5-0.1-0.9-0.2-1.4-0.2C24.9,42.2,23.9,42,23,42c-1.1,0-1.9,0.7-2.1,1.7c0.3-0.1,0.6-0.2,1-0.4c-0.3,1.1-0.6,2-0.9,3
	c0.1,0,0.2,0.1,0.2,0.1c0.4-0.5,0.7-1.1,1.1-1.6c0.1,0,0.2,0.1,0.2,0.1c-0.1,0.5-0.3,1-0.4,1.4h0.1c0.1-0.2,0.3-0.3,0.4-0.5
	c-0.6,3.2,1.4,5.4,3,7.8c0.5-1,1-1.9,1.4-2.7c0.4-1,0.4-1.9-0.1-2.9c-0.1-0.3-0.2-0.6-0.2-1C26.9,45.6,27.1,44.1,27.2,42.5z
	 M31.6,62.6c0.1,1.3,0.5,1.8,1.6,2.1c0.3,0.1,0.7,0.2,1,0.3c1.8,0.9,4.5,0.3,5.6-1.4c0.3-0.5,0.5-1,1.4-0.9
	c-1.4-1.3-0.9-2.5-0.1-3.8c-0.6,0.2-0.9,0.4-1.3,0.5c0-0.3,0.1-0.6,0-0.8c-0.2-0.4-0.4-0.9-0.6-1.3c-0.2-0.3-0.5-0.5-0.8-0.9
	c-1.1,0.4-2.2,0.1-3.2-0.7c-0.1,0.4-0.2,0.7-0.2,1c-0.3-0.3-0.5-0.5-0.8-0.8c-0.3,0.4-0.5,0.7-0.7,1c-0.3-0.1-0.5-0.2-0.8-0.4
	c0,1.3,0.2,2.6-1.6,2.8c0.5,1.3,0.9,2.5,1.4,3.7c0,0-0.1,0-0.1,0.1C32.2,63,32,62.9,31.6,62.6z M15.6,52.3c-0.7,0.3-1.3,0.5-1.9,0.8
	c-0.1,0.1-0.3,0.2-0.3,0.4c0,0.4,0,0.9,0,1.3c0.3,0,0.5,0,0.7,0.1c0.6,0.2,1.3,0.4,1.9,0.8c0.5,0.3,0.5,0.9,0.4,1.4
	c-0.1,0.3-0.3,0.6-0.5,0.8c-0.1,0-0.1-0.1-0.2-0.1c0-0.7-0.1-1.4-0.1-2c-0.1,0-0.2,0-0.3-0.1c0.1,1.2,0.1,2.3-1.3,2.5
	c0.3,0.6,0.6,1.1,0.9,1.6c0.1,0.1,0.2,0.2,0.3,0.2c0.5-0.2,1.2-0.3,1.6-0.6c0.7-0.6,0.9-0.7,1.8-0.4c0.3,0.1,0.6,0.2,0.9,0.2
	c-2.3-2.2-1.6-4.7-0.9-7.2c-0.8,0.6-1.2,1.6-1.9,2.4c0-0.5,0.1-0.9,0-1.2c-0.1-0.2-0.5-0.2-0.9-0.4C15.7,52.6,15.7,52.5,15.6,52.3z
	 M39.9,27.5c0.7-3.4-0.3-6.8-0.6-10.2c-0.7,1-1.1,2.1-1.1,3.3C38.1,23,39.1,25.2,39.9,27.5z M23.5,29.3c-1.4,0.5-2.6,1-3.7,1.4
	c-0.5,0.2-0.5,0.6-0.1,0.9c0.6,0.4,1.3,0.9,1.9,1.3c0.5,0.3,1.1,0,1.2-0.3C23.1,31.6,23.3,30.5,23.5,29.3z M32.7,28
	c-0.9,0-1,0.1-0.8,0.8c0.2,0.6,0.5,1.2,0.7,1.8c0.3,0.7,0.8,0.8,1.3,0.2c0.5-0.6,0.9-1.3,1.3-1.9c0.2-0.3,0.1-0.6-0.3-0.6
	C34.2,28.2,33.4,28.1,32.7,28z M32.3,20.6c0.1,0,0.1,0,0.2,0c0.2-0.5,0.3-0.9,0.5-1.4c0.4-1,0.7-1.1,1.7-0.8c0.1,0,0.3,0,0.5,0
	c-0.1-0.1-0.1-0.3-0.2-0.4c-0.7-0.5-1.4-1-2.1-1.4c-0.3-0.2-0.8-0.2-1-0.1c-0.3,0.2-0.5,0.7-0.4,1C31.6,18.5,32,19.5,32.3,20.6z
	 M23.3,36.8c-0.5,0.6-1,1.1-1.4,1.6c-0.3,0.3-0.3,0.6,0.1,0.8c0.5,0.3,1.1,0.6,1.7,0.7c0.3,0,0.7-0.3,1-0.6c0.1-0.1,0.1-0.3,0.1-0.4
	C24.3,38.3,23.8,37.6,23.3,36.8z M21.8,36.1c-1.1,0-1.7,0.9-2.5,1.4c0.7,0.5,1,1.3,1.8,1.5c0.2-0.8,0.5-1.5,0.7-2.2
	C21.9,36.5,21.8,36.3,21.8,36.1z M32,39c0.1,0,0.3,0.2,0.4,0.1c1.4-0.5,1.7-1.7,0.7-2.7c-0.1-0.1-0.4-0.3-0.5-0.2
	c-0.2,0.1-0.4,0.3-0.4,0.5C32.2,37.4,32.1,38.1,32,39z M18.9,37.4c0.4-0.6,0.7-1.1,1-1.6c0.2-0.3,0-0.5-0.4-0.6
	c-0.6,0-1.1,0.1-1.3,0.7C17.9,36.5,18.2,36.9,18.9,37.4z M35.6,28.5c0.1,1-1,1.7-0.1,2.6c0.5-0.7,0.9-1.3,1.4-2
	C36.5,28.8,36.1,28.7,35.6,28.5z M35.1,36.2C35,35.7,34.4,35,34,35c-0.1,0-0.4,0.3-0.3,0.4c0,0.3,0.2,0.6,0.3,0.9
	c0.2,0.4,0.4,0.7,0.6,1.1C34.8,37,35,36.6,35.1,36.2z M27.4,28.4c-0.9,0.2-1.7,0.4-2.5,0.5c0.3,0.7,0.8,0.8,1.3,0.8
	C26.9,29.7,27,29,27.4,28.4z M31.3,39.6c-0.5-0.4-0.8-0.7-1.1-0.8c-0.1-0.1-0.5,0-0.6,0.1c-0.2,0.2-0.2,0.5-0.2,0.8
	c0,0.2,0.2,0.5,0.3,0.4C30.1,40,30.6,39.8,31.3,39.6z M26.9,38.9c-0.4,0.5-0.8,0.9-1.1,1.3c0.5,0.1,1,0.2,1.5,0.3c0,0,0,0,0.1,0
	c0.3,0,0.5-0.2,0.3-0.5C27.4,39.6,27.2,39.3,26.9,38.9z M23.7,62.8c0.4-0.6,0.8-1.2,1.2-1.8c0-0.1-0.1-0.2-0.1-0.2
	c-0.5,0.1-1.1,0.1-1.3,0.4C23,61.6,23.5,62.2,23.7,62.8z M17.6,31.7c0.4,0.3,0.8,0.6,1.2,0.8c0.1,0.1,0.4,0.1,0.5,0s0.1-0.4,0.1-0.5
	C19.3,31.2,18.6,31,17.6,31.7z M29.4,28.2c0,0.1-0.1,0.2-0.1,0.3c0.3,0.2,0.7,0.7,1,0.6c0.4-0.1,0.7-0.5,1.1-0.8
	c0-0.1-0.1-0.1-0.1-0.2C30.7,28.1,30.1,28.1,29.4,28.2z M35.4,35.6c0.1,0,0.2,0,0.3,0c0-0.4,0.1-0.8-0.1-1.1
	c-0.2-0.3-0.7-0.4-1.1-0.5c-0.1,0.2-0.1,0.3,0,0.4C34.7,34.8,35,35.2,35.4,35.6z M18.7,34.3c-0.6-0.1-1.1-0.1-1.3,0.5
	c-0.2,0.5,0.2,0.7,0.6,0.9C18.2,35.3,18.4,34.8,18.7,34.3z M35.6,19.9c-0.3-0.2-0.5-0.4-0.6-0.4c-0.2,0-0.3,0.3-0.4,0.5
	c0.2,0.1,0.3,0.3,0.5,0.3C35.2,20.3,35.4,20.1,35.6,19.9z"/>
<path class="st0" d="M17.3,26.7c-1.6,0-2.9-1.4-2.6-3.1c0.2-1.3,0.9-2.4,2-3.1c0.9-0.5,1.8-0.6,2.7,0c0.3,0.2,0.6,0.4,0.9,0.7
	c1.4,1.4,1.5,2.6,0.1,3.9C19.5,26.2,18.4,26.7,17.3,26.7z M20.2,22c-0.4-0.3-0.6-0.6-0.8-0.5c-0.2,0-0.4,0.3-0.6,0.5
	c0.2,0.2,0.3,0.5,0.6,0.6C19.6,22.5,19.9,22.2,20.2,22z"/>
<path class="st0" d="M39,61.6c0,0.2-0.1,0.5-0.1,0.8c-0.4,1.5-1.7,2.5-3.2,2.4c-1.4-0.1-2.6-1.4-2.7-2.9c0-0.4,0-0.8,0-1.1
	c0.3-1.7,1.7-2.9,3.3-2.7C37.8,58.2,39,59.7,39,61.6z"/>
<g>
	<path class="st0" d="M46.1,37.8L45.3,38l0.2,0.8l-4.2,1L41.2,39l-0.8,0.2l-1-4.2l0.8-0.2L39.9,34l4.2-1l0.2,0.8l0.8-0.2L46.1,37.8z
		 M44.4,38.2l-1-4.1L41,34.7l1,4.1L44.4,38.2z"/>
	<path class="st0" d="M52.7,37l-1.6,0.4l-0.6-2.5L48,35.5l0.6,2.5l-1.7,0.4l-1.4-5.8l1.6-0.4l0.6,2.5l2.5-0.6l-0.6-2.5l1.7-0.4
		L52.7,37z"/>
	<path class="st0" d="M59.1,35.4l-1.7,0.4l-0.4-1.7l-2.5,0.6l0.4,1.7l-1.7,0.4l-1-4.1l0.8-0.2l-0.2-0.8l0.9-0.2l-0.2-0.8L56,30
		l0.2,0.8l0.8-0.2l0.2,0.8l0.8-0.2L59.1,35.4z M56.8,33.3l-0.4-1.7l-0.8,0.2l-0.2-0.8l-0.9,0.2l0.2,0.8L54,32.3l0.4,1.6L56.8,33.3z"
		/>
	<path class="st0" d="M65.5,33.8l-1.6,0.4l-0.2-0.8l-0.8,0.2l-0.2-0.8L61.8,33l-0.2-0.9l-0.8,0.2l0.6,2.5l-1.7,0.4l-1.4-5.8l1.6-0.4
		l0.2,0.8l0.9-0.2l0.2,0.8l0.8-0.2l0.2,0.9l0.8-0.2l-0.6-2.5l1.7-0.4L65.5,33.8z"/>
	<path class="st0" d="M71.9,32.2l-1.7,0.4L69.9,31l-2.5,0.6l0.4,1.7l-1.7,0.4l-1-4.1l0.8-0.2l-0.2-0.8l0.9-0.2l-0.2-0.8l2.5-0.6
		l0.2,0.8l0.8-0.2l0.2,0.8l0.8-0.2L71.9,32.2z M69.7,30.2l-0.4-1.7l-0.8,0.2l-0.2-0.8l-0.9,0.2l0.2,0.8l-0.8,0.2l0.4,1.6L69.7,30.2z
		"/>
</g>
</svg>
